<svg xmlns="http://www.w3.org/2000/svg" viewBox="0 0 257 50.36"><defs><style>.cls-1{fill:#fff;}.cls-2{fill:#00c2ff;}.cls-3{fill:#e94f18;}</style></defs><title>logo</title><g id="图层_2" data-name="图层 2"><g id="logo-250x50"><path class="cls-1" d="M48.27,49.15,58.23,20H70.68l-9,26.28a3.46,3.46,0,0,1-3.75,2.83ZM58.53,32.7h3.31l3-8.62H61.48ZM57,45.37c.36,0,.61-.22.76-.67l2.72-8H57.14l-3,8.62ZM81.29,21.91l.83-2.42h4.77l-.83,2.42h1.06l-1.48,4.31H84.58l-7,20.36q-1,3.36-3.85,3.1H65.7L67,45.91h5.29c.59.09,1-.27,1.17-1.07l6.36-18.6H70l1.48-4.31ZM68.72,35.8c.5.09.9-.18,1.21-.81l2.91-6.2h4.37L73.75,36.2Q72.23,39.85,69,39.71H65.4l1.34-3.91Z"/><path class="cls-1" d="M99.66,33.23l4.71-13.75h5l-4.7,13.74h12.45l-1.48,4.31h-5.83l-2.76,8.09c0,.36.08.54.34.54h5.17l-1.34,3.91H104c-2.08-.09-2.87-1-2.34-2.83L105,37.4H97.84l-5.09,9.84a5,5,0,0,1-4.41,2.84H81.05l1.34-3.91h4.37a1.6,1.6,0,0,0,1.34-.81l4.44-8H85.39l1.43-4.18Zm-6.33-1.62c-1.71.09-2.43-.89-2.16-3l.39-8.9h5.56l-.18,6.74c-.1.81.29,1.21,1.17,1.21h1.46l-1.34,3.91Zm17.59-4.18c.58.09,1.12-.32,1.6-1.22l3.71-6.2h5.3l-4.93,8.22c-1.27,2.43-2.76,3.56-4.46,3.37h-5l1.43-4.18Z"/><path class="cls-1" d="M126.09,19.07h28.48L145,47c-.68,2.52-2.08,3.64-4.2,3.38h-5L137,46.69h2.64a1.4,1.4,0,0,0,1.48-1.22l7.56-22.1H128.86l-9.09,26.55h-4.24Zm1.15,18.32,1.06-12h3.57l-.61,5.66,3.35-5.53h6.62l-.25,5,3.16-5h3.45l-6.83,10.65-.92,8.89H136.4l.34-2.56L133.9,47h-3.45l6.87-10.78.41-9.71-7.09,11.06L130.06,47h-3.58l.41-3.91L124.49,47h-3.31Z"/><path class="cls-1" d="M154.57,33.74l1.89-5.52,7.77-8.76h5.3l-8.89,10.11h1.19L164.16,27h5.17L158.6,39h5.7L163,42.9H151.57l1-2.83,5.87-6.34Zm6,16.17H149l1.38-4.05H162Zm11.79-27.49a1.53,1.53,0,0,0,1.29-.68l1.89-2.42h4.64L179,20.8h10.06l-1.38,4.05L180,30.64l1.09,1.07a1.35,1.35,0,0,0,1,.54h3.18l-1.2,3.5h-5.83a1.77,1.77,0,0,1-1.62-.68l-.91-1.21L174.16,35a2.78,2.78,0,0,1-2.13.81H166.2l1.15-3.37h3.31a2.22,2.22,0,0,0,1.25-.54l1.38-.94L169.86,27h7l.61.54,3.57-2.7h-5.17a2.4,2.4,0,0,1-1.73.81h-4.37l1.11-3.23ZM161.67,49.78,166,37.11h17.35l-3.27,9.57c-.54,2.34-1.86,3.37-4,3.1Zm13-3.65c.5.09.81-.18.94-.8l1.52-4.45h-7.55l-1.8,5.26Z"/><path class="cls-1" d="M193.39,20.93h9.4a1.06,1.06,0,0,0,1.07-.81l.19-.53h4.63l-.5,1.49c-.57,2.42-2.19,3.55-4.86,3.37h-1.06l-.7,2h4.9l-1.33,3.91H200l-6.64,19.41h-4.24l6.64-19.41H190l1.34-3.91h5.69l.65-1.89h-5.57Zm-3.86,25.2c-.71,2.33-2.12,3.37-4.24,3.1h-1.72l1.25-3.64h.26q.36.13.9-1.08l4.87-13.07h4Zm10.59-14.69h3.58l-4.12,12.81q-.27.81.12.81H200l.87-2.56,8.89-.82,7.61-22.23h4.24l-7.47,21.84,1.94-.27-1.57,4.58-1.9.14-1.43,4.17h-4.37l1.29-3.78-8.75.81-.74,2.16h-1.85q-2.79.4-1.41-3.23Zm8.5-10.52h4.5l-.8,3.91c-.26,1,0,1.44.73,1.35h1.32L213.08,30h-4.24c-1.5.27-2-.81-1.54-3.23Zm-2.44,18.73q-3.54.29-2.29-3L205,31.43h4.51l-.63,3.37c-.13.9.17,1.3.91,1.21h1.06l-1.24,3.64Z"/><path class="cls-1" d="M225.73,25.09l1.39-4h6.62l.78-2.29h4.37L238.11,21h1.72l-1.38,4.05h-1.73l-.55,1.62h1.19l-1.52,4.44h-1.19l-5,14.56a3.78,3.78,0,0,1-4.42,3.23H218.1l1.2-3.51h5.16c.59.09,1-.22,1.12-.94l2.49-7.28-4.26,4.72a3,3,0,0,1-3,1.35h-1.72l1.34-3.91h.39c.32.09.92-.36,1.79-1.35l8.48-9.3,1.24-3.64Zm14.85-3.91h5.16l.93-2.7h4.63l-.92,2.7H257l-1.25,3.64h-6.62l-1.38,4.05h6.62l-1.15,3.36-9.18,9,1.36,3.37a1.21,1.21,0,0,0,1.45.8h1.85l-1.2,3.51H243q-1.51.14-1.62-1.08l-1.11-3-3.84,3.5c-.24.45-.88.63-1.91.54h-4.63l1.2-3.5h2.78c.41.09.94-.18,1.6-.81l3.62-3.24-2.94-7.27h5.17l1.4,3.63,5.11-5.25H236.44l1.24-3.64h5.43l1.39-4h-5.17Z"/><path class="cls-2" d="M18.69,2.26l13.62,16H40.2a3,3,0,0,0,2.84-2c0-.07.05-.13.07-.19L48,1.42a.14.14,0,0,0,0-.06.92.92,0,0,0,0-.29,1,1,0,0,0-1-1S21.38-.07,20.58.06a3.86,3.86,0,0,0-1.53.68s-.57.51-.58.91a1.08,1.08,0,0,0,.22.61"/><path class="cls-3" d="M37.51,27.85,16.19,2.79h0A1.63,1.63,0,0,1,16.78.27h0a2.42,2.42,0,0,0-1.11,1,5.65,5.65,0,0,0-.25.6L10.15,17.66a3.93,3.93,0,0,0-.12,1A4,4,0,0,0,10.79,21L32.44,45.73a1.69,1.69,0,0,1,.35,1,3.71,3.71,0,0,1-.15.8s.06-.21.11-.33L33,46.4l5-15.08a4.16,4.16,0,0,0,.17-1.18A4,4,0,0,0,37.51,27.85Z"/><path class="cls-2" d="M29.85,47.54a2.77,2.77,0,0,0,.12-.6,1,1,0,0,0-.21-.62L16.55,31.22H7.83a3,3,0,0,0-2.83,2c0,.06,0,.13-.07.2C2.24,41.46,0,48.05,0,48.07a.75.75,0,0,0,0,.26,1,1,0,0,0,1,1H28.18C29.14,49.34,29.85,47.54,29.85,47.54Z"/></g></g></svg>